<svg width="377" height="759" viewBox="0 0 377 759" fill="none" xmlns="http://www.w3.org/2000/svg">
<g clip-path="url(#clip0_1111_60)">
<path d="M357.5 378.5C337.5 417.02 451.49 377.83 420.93 394.07C412.099 398.754 402.918 402.746 393.47 406.01C337.86 425.31 275.62 420.19 226.73 410C192.439 402.847 157.632 398.446 122.64 396.84C112.66 396.39 102.67 396.167 92.67 396.17C77.2499 396.19 61.8333 396.763 46.42 397.89C-53.75 405.25 -207.4 391.46 -275 254.6L-105.86 -73L-42.91 88.62L-22.82 140.21L32.55 64.23L61.14 25L191.34 174.27L228.14 93L482.92 300.92L286 394.07L357.5 378.5Z" fill="url(#paint0_linear_1111_60)"/>
<path d="M386.828 481.831V481.835C386.486 482.176 386.127 482.502 385.755 482.809C379.554 487.922 375.316 491.508 367.686 493.371C353.323 496.874 338.907 500.084 324.438 502.999C296.213 508.692 267.838 513.291 239.311 516.797C181.412 523.946 123.153 526.482 64.9507 524.387C45.568 523.691 26.8738 522.952 9.11326 513.1C-3.86915 505.899 -14.7772 494.519 -22.9224 480.906C-31.1816 467.103 -36.2048 450.771 -37.9158 433.985C-33.8941 431.964 -29.6215 430.683 -25.2544 430.19C-10.0963 428.527 4.821 434.92 18.6061 442.359C32.3954 449.793 45.9355 458.482 60.8655 461.912C82.8676 466.967 105.579 460.093 126.673 451.291C147.767 442.49 168.531 431.621 190.778 428.298C220.617 423.836 250.557 433.28 279.53 442.631C310.391 452.59 341.254 462.551 372.118 472.514C376.529 473.934 381.104 475.457 384.543 478.941C385.396 479.803 386.162 480.773 386.828 481.831Z" fill="#709C72" fill-opacity="0.28"/>
<path d="M386.828 481.831V481.835C386.486 482.176 386.127 482.502 385.755 482.809C381.869 486.01 378.755 488.618 375.096 490.573C362.52 491.999 349.926 493.233 337.315 494.276C304.857 496.957 272.336 498.382 239.751 498.553C173.647 498.942 104.147 501.326 46.2691 464.35C27.0108 452.046 -0.886636 477.277 -19.9652 463.785C-25.4646 459.883 -30.5748 455.297 -35.2036 450.109C-36.4538 444.819 -37.3603 439.43 -37.9159 433.985C-39.4474 419.278 -38.368 404.366 -34.7431 390.154C-32.9894 383.355 -30.5968 376.797 -27.6077 370.596C-18.7443 374.259 -10.2443 379.533 -2.15404 385.118C12.683 395.35 27.1103 406.968 43.6329 412.826C67.9882 421.462 94.3374 416.714 119.052 409.571C143.766 402.429 168.316 392.913 193.786 392.11C227.947 391.035 260.828 405.684 292.627 420.1C324.527 434.564 356.432 449.027 388.341 463.488C389.042 465.683 389.669 467.909 390.221 470.169C391.349 474.761 389.714 478.921 386.828 481.831Z" fill="#709C72" fill-opacity="0.28"/>
<path d="M-12.3972 446.357C-12.0846 446.373 -11.7751 446.279 -11.5106 446.086C-11.2462 445.893 -11.0396 445.611 -10.9188 445.279C-10.7981 444.946 -10.769 444.579 -10.8356 444.227C-10.9022 443.875 -11.0611 443.554 -11.2909 443.31C-11.3294 443.134 -11.357 443.007 -11.3955 442.831C-11.3818 442.792 -11.3679 442.754 -11.354 442.716C-11.039 441.859 -10.5112 441.129 -9.83688 440.616C-9.16256 440.104 -8.37177 439.832 -7.56387 439.836C-6.75596 439.839 -5.96696 440.117 -5.29596 440.636C-4.62497 441.154 -4.1019 441.889 -3.79246 442.748C-2.55573 446.178 -0.981169 449.615 -0.593471 453.242C-0.422718 454.845 -0.494746 456.47 -0.806355 458.045C2.09838 450.748 3.60674 442.817 3.61644 434.789C3.61706 432.775 3.51988 430.762 3.32536 428.76C3.1646 427.119 2.94157 425.49 2.65627 423.872C1.0994 415.094 -2.24327 406.867 -7.09723 399.866C-9.44653 398.39 -11.3465 396.12 -12.541 393.361C-12.9737 392.37 -13.2795 391.312 -13.449 390.219C-13.184 390.259 -12.9146 390.284 -12.6496 390.304C-12.567 390.309 -12.4801 390.314 -12.3976 390.319L-12.3665 390.321C-12.0752 390.336 -11.7864 390.254 -11.5347 390.084C-11.2831 389.915 -11.0794 389.665 -10.9482 389.365C-10.8169 389.065 -10.7637 388.728 -10.795 388.394C-10.8263 388.06 -10.9406 387.744 -11.1244 387.483C-11.2388 387.321 -11.3533 387.159 -11.4678 386.997C-11.6417 386.747 -11.8198 386.502 -11.9935 386.252C-12.0136 386.228 -12.0325 386.203 -12.05 386.177C-12.2499 385.891 -12.4497 385.611 -12.6496 385.326C-12.2848 384.674 -11.7941 384.128 -11.2159 383.73C-9.21304 382.379 -6.44989 383.315 -5.00314 385.401C-3.55206 387.487 -3.27838 390.414 -3.78231 393.021C-4.27791 395.239 -5.09771 397.344 -6.20661 399.245C-6.09797 399.405 -5.985 399.561 -5.8764 399.721C-3.89092 402.661 -2.16043 405.818 -0.709744 409.147C-1.06253 405.418 -0.641472 401.645 0.518793 398.14C1.69471 394.873 3.8988 392.121 5.83977 389.297C8.17118 385.905 12.9519 387.385 13.3627 391.685C13.3667 391.727 13.3705 391.769 13.3743 391.81C13.086 391.998 12.8038 392.196 12.5277 392.407C12.1808 392.674 11.9121 393.055 11.7566 393.501C11.6011 393.947 11.5662 394.436 11.6565 394.905C11.7467 395.374 11.9579 395.801 12.2623 396.13C12.5667 396.458 12.9502 396.673 13.3625 396.746L13.4047 396.754C13.302 397.95 13.1205 399.136 12.8617 400.301C12.1117 403.553 10.7865 406.592 8.96904 409.226C7.1516 411.861 4.88115 414.035 2.30003 415.611C2.13059 415.711 1.96547 415.811 1.79603 415.907C2.57355 418.429 3.19493 421.013 3.65551 423.637C4.06762 425.951 4.35491 428.292 4.51573 430.646C4.71273 433.613 4.70111 436.593 4.48097 439.557L4.49401 439.452C5.05016 436.156 6.57706 433.182 8.81687 431.032C12.1435 427.885 16.8435 426.726 20.4324 424.196C20.8138 423.914 21.2573 423.763 21.7105 423.762C22.1638 423.761 22.6079 423.909 22.9905 424.189C23.3731 424.469 23.6782 424.869 23.8699 425.342C24.0616 425.815 24.1318 426.341 24.0722 426.859C24.0674 426.895 24.0625 426.932 24.0575 426.969C23.5226 427.22 23.0016 427.509 22.4979 427.834C22.2096 428.022 21.9274 428.221 21.6512 428.431C21.3044 428.698 21.0356 429.079 20.8801 429.525C20.7247 429.971 20.6897 430.46 20.78 430.929C20.8702 431.398 21.0814 431.825 21.3858 432.154C21.6902 432.482 22.0737 432.697 22.486 432.77L22.5283 432.778C22.5587 432.783 22.5848 432.788 22.6151 432.793C21.701 435.306 20.418 437.62 18.8224 439.632C16.8512 442.068 14.4687 444.015 11.8211 445.353C9.17347 446.691 6.31646 447.391 3.42525 447.413H3.42089C2.63605 451.34 1.49891 455.163 0.0277753 458.82H-12.0935C-12.137 458.665 -12.1761 458.505 -12.2152 458.35C-11.0932 458.431 -9.96681 458.354 -8.86114 458.12C-9.76048 456.849 -10.6598 455.568 -11.5591 454.297C-11.5792 454.273 -11.598 454.248 -11.6156 454.222C-12.0718 453.572 -12.5323 452.926 -12.9885 452.276L-12.9887 452.275C-13.013 450.281 -12.8144 448.292 -12.3976 446.357L-12.3972 446.357Z" fill="#467957"/>
<path d="M348.812 459.979C349.125 459.996 349.434 459.901 349.699 459.709C349.963 459.516 350.17 459.234 350.291 458.902C350.411 458.569 350.44 458.202 350.374 457.85C350.307 457.497 350.148 457.177 349.919 456.932C349.88 456.756 349.852 456.63 349.814 456.454C349.828 456.415 349.842 456.377 349.855 456.339C350.17 455.482 350.698 454.751 351.373 454.239C352.047 453.726 352.838 453.455 353.646 453.458C354.453 453.462 355.242 453.74 355.913 454.258C356.584 454.777 357.108 455.512 357.417 456.371C358.654 459.801 360.228 463.237 360.616 466.864C360.787 468.468 360.715 470.093 360.403 471.668C363.308 464.37 364.816 456.439 364.826 448.412C364.826 446.398 364.729 444.385 364.535 442.383C364.374 440.742 364.151 439.112 363.866 437.495C362.309 428.717 358.966 420.49 354.112 413.489C351.763 412.012 349.863 409.742 348.669 406.984C348.236 405.993 347.93 404.934 347.76 403.842C348.026 403.882 348.295 403.907 348.56 403.927C348.642 403.932 348.729 403.937 348.812 403.942L348.843 403.944C349.134 403.959 349.423 403.877 349.675 403.707C349.926 403.537 350.13 403.288 350.261 402.988C350.393 402.688 350.446 402.351 350.414 402.017C350.383 401.683 350.269 401.367 350.085 401.106C349.971 400.944 349.856 400.782 349.742 400.62C349.568 400.37 349.39 400.125 349.216 399.874C349.196 399.851 349.177 399.826 349.159 399.799C348.96 399.514 348.76 399.234 348.56 398.949C348.925 398.297 349.415 397.751 349.994 397.353C351.996 396.002 354.76 396.938 356.206 399.024C357.657 401.11 357.931 404.037 357.427 406.644C356.932 408.862 356.112 410.967 355.003 412.868C355.112 413.028 355.224 413.183 355.333 413.343C357.319 416.284 359.049 419.441 360.5 422.77C360.147 419.04 360.568 415.268 361.728 411.762C362.904 408.496 365.108 405.744 367.049 402.92C369.381 399.527 374.161 401.008 374.572 405.308C374.576 405.35 374.58 405.392 374.584 405.433C374.296 405.62 374.013 405.819 373.737 406.03C373.39 406.296 373.122 406.678 372.966 407.124C372.811 407.569 372.776 408.059 372.866 408.528C372.956 408.997 373.167 409.424 373.472 409.752C373.776 410.081 374.16 410.296 374.572 410.369L374.614 410.376C374.512 411.573 374.33 412.759 374.071 413.924C373.321 417.176 371.996 420.214 370.179 422.849C368.361 425.484 366.091 427.657 363.51 429.234C363.34 429.334 363.175 429.434 363.006 429.529C364.463 434.286 365.377 439.241 365.725 444.269C365.922 447.236 365.911 450.216 365.69 453.18L365.704 453.075C366.26 449.779 367.787 446.804 370.026 444.654C373.353 441.507 378.053 440.348 381.642 437.819C382.023 437.537 382.467 437.386 382.92 437.385C383.373 437.384 383.817 437.532 384.2 437.812C384.583 438.091 384.888 438.491 385.079 438.965C385.271 439.438 385.341 439.964 385.282 440.481C385.277 440.518 385.272 440.555 385.267 440.592C384.732 440.843 384.211 441.132 383.707 441.457C383.419 441.645 383.137 441.843 382.861 442.054C382.514 442.321 382.245 442.702 382.09 443.148C381.934 443.594 381.899 444.083 381.989 444.552C382.08 445.021 382.291 445.448 382.595 445.776C382.9 446.105 383.283 446.32 383.696 446.393L383.738 446.401C383.768 446.406 383.794 446.411 383.825 446.416C382.911 448.929 381.628 451.243 380.032 453.255C378.061 455.691 375.678 457.638 373.031 458.975C370.383 460.313 367.526 461.014 364.635 461.035H364.63C363.846 464.963 362.708 468.786 361.237 472.443H349.116C349.073 472.288 349.033 472.128 348.994 471.973C350.116 472.054 351.243 471.977 352.348 471.743C351.449 470.472 350.55 469.191 349.65 467.92C349.63 467.896 349.611 467.871 349.594 467.845C349.138 467.195 348.677 466.549 348.221 465.899L348.221 465.898C348.196 463.904 348.395 461.915 348.812 459.979Z" fill="#467957"/>
<path d="M204.751 419.598C205.064 419.614 205.373 419.52 205.638 419.327C205.902 419.134 206.109 418.852 206.229 418.52C206.35 418.187 206.379 417.82 206.313 417.468C206.246 417.115 206.087 416.795 205.857 416.551C205.819 416.374 205.791 416.248 205.753 416.072C205.766 416.033 205.78 415.995 205.794 415.957C206.109 415.1 206.637 414.37 207.311 413.857C207.986 413.345 208.776 413.073 209.584 413.077C210.392 413.08 211.181 413.358 211.852 413.876C212.523 414.395 213.046 415.13 213.356 415.989C214.592 419.419 216.167 422.856 216.555 426.483C216.725 428.086 216.653 429.711 216.342 431.286C219.247 423.989 220.755 416.058 220.765 408.03C220.765 406.016 220.668 404.003 220.474 402.001C220.313 400.36 220.09 398.731 219.804 397.113C218.248 388.335 214.905 380.108 210.051 373.107C207.702 371.631 205.802 369.36 204.607 366.602C204.174 365.611 203.869 364.553 203.699 363.46C203.964 363.5 204.234 363.525 204.499 363.545C204.581 363.55 204.668 363.555 204.751 363.56L204.782 363.562C205.073 363.577 205.362 363.495 205.613 363.325C205.865 363.156 206.069 362.906 206.2 362.606C206.331 362.306 206.384 361.969 206.353 361.635C206.322 361.301 206.208 360.985 206.024 360.724C205.909 360.562 205.795 360.4 205.68 360.238C205.507 359.988 205.328 359.743 205.155 359.493C205.135 359.469 205.116 359.444 205.098 359.418C204.898 359.132 204.698 358.852 204.499 358.567C204.863 357.915 205.354 357.369 205.932 356.971C207.935 355.62 210.698 356.556 212.145 358.642C213.596 360.728 213.87 363.655 213.366 366.262C212.87 368.48 212.05 370.585 210.942 372.486C211.05 372.646 211.163 372.802 211.272 372.962C213.257 375.902 214.988 379.059 216.438 382.388C216.086 378.659 216.507 374.886 217.667 371.381C218.843 368.114 221.047 365.362 222.988 362.538C225.319 359.146 230.1 360.626 230.511 364.926C230.515 364.968 230.519 365.01 230.523 365.051C230.234 365.239 229.952 365.437 229.676 365.648C229.329 365.915 229.06 366.296 228.905 366.742C228.749 367.188 228.714 367.677 228.805 368.146C228.895 368.615 229.106 369.042 229.41 369.371C229.715 369.699 230.098 369.914 230.511 369.987L230.553 369.995C230.45 371.191 230.269 372.377 230.01 373.542C229.26 376.794 227.935 379.833 226.117 382.467C224.3 385.102 222.029 387.276 219.448 388.852C219.279 388.952 219.114 389.052 218.944 389.148C220.402 393.904 221.316 398.859 221.664 403.887C221.861 406.854 221.849 409.834 221.629 412.798L221.642 412.693C222.198 409.397 223.725 406.423 225.965 404.273C229.292 401.125 233.992 399.967 237.581 397.437C237.962 397.155 238.405 397.004 238.859 397.003C239.312 397.002 239.756 397.15 240.139 397.43C240.521 397.71 240.826 398.11 241.018 398.583C241.21 399.056 241.28 399.582 241.22 400.099C241.216 400.136 241.211 400.173 241.206 400.21C240.671 400.461 240.15 400.75 239.646 401.075C239.358 401.263 239.076 401.462 238.799 401.672C238.453 401.939 238.184 402.32 238.028 402.766C237.873 403.212 237.838 403.701 237.928 404.17C238.018 404.639 238.23 405.066 238.534 405.395C238.838 405.723 239.222 405.938 239.634 406.011L239.676 406.019C239.707 406.024 239.733 406.029 239.763 406.034C238.849 408.547 237.566 410.861 235.971 412.873C233.999 415.309 231.617 417.256 228.969 418.594C226.322 419.932 223.465 420.632 220.573 420.654H220.569C219.784 424.581 218.647 428.404 217.176 432.061H205.055C205.011 431.906 204.972 431.746 204.933 431.591C206.055 431.672 207.181 431.595 208.287 431.361C207.388 430.09 206.488 428.809 205.589 427.538C205.569 427.514 205.55 427.489 205.533 427.463C205.076 426.813 204.616 426.167 204.16 425.517L204.159 425.516C204.135 423.522 204.334 421.533 204.751 419.598L204.751 419.598Z" fill="#511B1B"/>
<path d="M96.1477 510.409L95.6914 511.299L96.0171 511.358L96.1477 510.409Z" fill="#2F2E41"/>
<path d="M75.7942 295.051C70.9897 291.321 71.4597 283.159 76.5405 279.952C76.6439 279.886 76.7453 279.819 76.8447 279.749C77.0993 278.345 77.3539 276.94 77.6086 275.536C79.1074 277.329 82.0548 276.99 83.2168 274.892C79.1651 264.939 73.8371 255.744 67.4116 247.615C66.0109 245.834 65.225 243.524 65.2024 241.121C65.1798 238.719 65.922 236.39 67.2889 234.575C67.3135 234.542 67.3378 234.508 67.3619 234.475C70.9904 233.064 74.4262 231.066 77.5663 228.541C66.7977 208.616 46.2634 192.786 41.3826 170C26.699 188.159 25.0507 194.555 10.3671 212.715C10.3671 212.715 -3.53657 227.163 -6.53757 234.928C-5.8002 235.82 0.80129 237.961 1.05508 239.714C6.08954 240.179 14.8115 233.824 14.8115 233.824C14.8115 233.824 -4.22563 257.197 -10.0055 271.594C-10.526 272.891 -11.0203 274.371 -10.5843 275.708C-10.2362 276.776 -8.98734 277.391 -8.18304 276.967C-9.14384 278.034 -9.9153 279.306 -10.4545 280.713C-8.77723 281.946 -6.78785 282.492 -4.80785 282.263C-2.82786 282.033 -0.972964 281.041 0.457013 279.447C-0.34804 281.179 -1.15309 282.911 -1.95815 284.644L-1.95671 284.648C-0.8691 285.057 0.106963 285.786 0.875039 286.763C1.64312 287.739 2.17662 288.93 2.42285 290.217C2.66907 291.504 2.6195 292.842 2.27901 294.1C1.93853 295.358 1.31893 296.492 0.481419 297.39C-4.51435 302.741 -9.07917 308.365 -10.7518 312.069C-12.3254 315.554 3.83139 319.754 7.46544 319.582C11.0995 319.409 14.4963 317.571 17.7785 315.766C17.6186 317.489 17.9048 319.229 18.6013 320.765C20.3988 321.268 22.2653 321.351 24.0913 321.011C25.9172 320.671 27.6658 319.915 29.2343 318.786C29.0894 322.233 32.8649 324.136 35.4855 323.16C34.1772 346.995 35.1342 380.465 36.3911 415.21H39.5095V324.534C40.3393 325.018 41.2269 325.358 42.1433 325.542C48.5234 326.847 56.2226 327.64 60.3742 321.91C65.1524 327.459 73.9087 327.353 78.6593 321.824C78.1918 322.778 78.9074 324.383 79.9659 324.636C81.2135 324.934 82.4272 324.081 83.4863 323.265C88.2812 319.573 93.076 315.882 97.8708 312.19C91.9539 307.596 83.5485 301.071 75.7942 295.051Z" fill="url(#paint1_linear_1111_60)"/>
<path d="M349.553 353.921C344.748 350.191 345.218 342.029 350.299 338.821C350.403 338.756 350.504 338.689 350.603 338.619C350.858 337.215 351.113 335.81 351.367 334.406C352.866 336.199 355.814 335.86 356.976 333.762C352.924 323.809 347.596 314.613 341.17 306.484C339.77 304.704 338.984 302.394 338.961 299.991C338.939 297.589 339.681 295.26 341.048 293.445C341.072 293.412 341.097 293.378 341.121 293.345C344.749 291.934 348.185 289.936 351.325 287.411C340.556 267.485 320.022 251.656 315.141 228.87C300.458 247.029 298.809 253.425 284.126 271.584C284.126 271.584 270.222 286.033 267.221 293.798C267.959 294.69 274.56 296.83 274.814 298.584C279.848 299.049 288.57 292.694 288.57 292.694C288.57 292.694 269.533 316.067 263.753 330.464C263.233 331.761 262.738 333.241 263.174 334.578C263.523 335.646 264.771 336.261 265.576 335.837C264.615 336.904 263.843 338.176 263.304 339.583C264.982 340.816 266.971 341.362 268.951 341.132C270.931 340.903 272.786 339.911 274.216 338.317C273.411 340.049 272.606 341.781 271.801 343.513L271.802 343.518C272.89 343.927 273.866 344.656 274.634 345.633C275.402 346.609 275.935 347.8 276.182 349.087C276.428 350.374 276.378 351.712 276.038 352.97C275.697 354.228 275.078 355.362 274.24 356.26C269.244 361.611 264.68 367.235 263.007 370.939C261.433 374.424 277.59 378.624 281.224 378.452C284.858 378.279 288.255 376.44 291.537 374.636C291.377 376.359 291.664 378.099 292.36 379.635C294.158 380.138 296.024 380.221 297.85 379.881C299.676 379.541 301.425 378.785 302.993 377.656C302.848 381.103 306.624 383.006 309.244 382.03C307.936 405.865 308.893 439.335 310.15 474.08H313.268V383.404C314.098 383.888 314.986 384.228 315.902 384.412C322.282 385.716 329.981 386.509 334.133 380.78C338.911 386.329 347.667 386.223 352.418 380.694C351.951 381.648 352.666 383.253 353.725 383.506C354.972 383.804 356.186 382.95 357.245 382.135C362.04 378.443 366.835 374.752 371.63 371.06C365.713 366.466 357.307 359.941 349.553 353.921Z" fill="url(#paint2_linear_1111_60)"/>
<path d="M172.508 326.624C168.266 323.384 168.681 316.295 173.167 313.509C173.258 313.452 173.348 313.393 173.436 313.333C173.66 312.113 173.885 310.893 174.11 309.673C175.433 311.23 178.036 310.936 179.062 309.114C175.484 300.468 170.78 292.48 165.107 285.419C163.87 283.872 163.176 281.866 163.156 279.779C163.136 277.692 163.792 275.669 164.999 274.092C165.02 274.064 165.042 274.035 165.063 274.006C168.267 272.78 171.3 271.044 174.073 268.851C164.565 251.543 146.435 237.793 142.125 218C129.161 233.774 127.706 239.33 114.741 255.104C114.741 255.104 102.465 267.654 99.8158 274.399C100.467 275.174 106.295 277.033 106.519 278.557C110.964 278.961 118.665 273.44 118.665 273.44C118.665 273.44 101.857 293.743 96.7539 306.249C96.2943 307.375 95.8579 308.661 96.2428 309.823C96.5502 310.75 97.6528 311.285 98.363 310.916C97.5146 311.843 96.8335 312.948 96.3575 314.17C97.8383 315.241 99.5948 315.715 101.343 315.516C103.091 315.317 104.729 314.455 105.991 313.07C105.281 314.575 104.57 316.08 103.859 317.584L103.86 317.588C104.821 317.943 105.682 318.577 106.361 319.425C107.039 320.273 107.51 321.308 107.727 322.425C107.945 323.543 107.901 324.706 107.6 325.799C107.3 326.891 106.752 327.877 106.013 328.656C101.602 333.304 97.5718 338.19 96.095 341.407C94.7056 344.434 108.971 348.083 112.179 347.933C115.388 347.783 118.387 346.186 121.285 344.618C121.144 346.115 121.396 347.626 122.011 348.961C123.598 349.398 125.246 349.47 126.859 349.175C128.471 348.88 130.015 348.222 131.399 347.242C131.272 350.236 134.605 351.889 136.919 351.041C135.764 371.745 136.609 400.819 137.718 431H140.472V352.235C141.204 352.655 141.988 352.951 142.797 353.111C148.43 354.244 155.228 354.932 158.893 349.955C163.112 354.775 170.843 354.684 175.038 349.881C174.625 350.709 175.257 352.104 176.191 352.324C177.293 352.582 178.364 351.841 179.3 351.133C183.533 347.926 187.767 344.719 192 341.512C186.776 337.522 179.355 331.854 172.508 326.624Z" fill="url(#paint3_linear_1111_60)"/>
<path d="M164.305 457.666C168.978 457.666 172.766 456.594 172.766 455.272C172.766 453.951 168.978 452.879 164.305 452.879C159.632 452.879 155.844 453.951 155.844 455.272C155.844 456.594 159.632 457.666 164.305 457.666Z" fill="#E6E6E6"/>
<path d="M256.411 467C261.084 467 264.872 465.928 264.872 464.607C264.872 463.285 261.084 462.213 256.411 462.213C251.738 462.213 247.949 463.285 247.949 464.607C247.949 465.928 251.738 467 256.411 467Z" fill="#E6E6E6"/>
<path d="M274.058 447.374C278.731 447.374 282.519 446.303 282.519 444.981C282.519 443.659 278.731 442.587 274.058 442.587C269.385 442.587 265.597 443.659 265.597 444.981C265.597 446.303 269.385 447.374 274.058 447.374Z" fill="#E6E6E6"/>
<path d="M239.367 440.433C242.906 440.433 245.774 439.622 245.774 438.621C245.774 437.62 242.906 436.809 239.367 436.809C235.829 436.809 232.961 437.62 232.961 438.621C232.961 439.622 235.829 440.433 239.367 440.433Z" fill="#E6E6E6"/>
<path d="M100.605 438.724C102.942 438.724 104.836 438.142 104.836 437.424C104.836 436.707 102.942 436.125 100.605 436.125C98.2688 436.125 96.3748 436.707 96.3748 437.424C96.3748 438.142 98.2688 438.724 100.605 438.724Z" fill="#E6E6E6"/>
<path d="M83.9249 453.323C86.2614 453.323 88.1554 452.742 88.1554 452.024C88.1554 451.307 86.2614 450.725 83.9249 450.725C81.5884 450.725 79.6943 451.307 79.6943 452.024C79.6943 452.742 81.5884 453.323 83.9249 453.323Z" fill="#E6E6E6"/>
<path d="M83.9249 430.347C86.2614 430.347 88.1554 429.765 88.1554 429.048C88.1554 428.33 86.2614 427.748 83.9249 427.748C81.5884 427.748 79.6943 428.33 79.6943 429.048C79.6943 429.765 81.5884 430.347 83.9249 430.347Z" fill="#E6E6E6"/>
<path d="M265.082 433.242L224.092 431.806L202.475 433.848L165.544 437.335L151.646 438.646L119.46 449.273C119.33 449.316 119.192 449.321 119.059 449.289C118.927 449.257 118.807 449.188 118.712 449.091C118.618 448.994 118.553 448.872 118.526 448.74C118.499 448.608 118.51 448.471 118.558 448.345L118.56 448.342L124.142 433.726L123.555 433.297L108.194 422.122L108.112 422.063L88.1945 419.057C87.9141 419.014 87.6493 418.901 87.425 418.729C87.2007 418.557 87.0244 418.332 86.9126 418.073C86.8009 417.815 86.7574 417.533 86.7863 417.254C86.8151 416.974 86.9154 416.707 87.0776 416.476L117.412 373.381L133.353 350.739L135.081 348.281L201.392 347.374L266.134 431.227C266.28 431.416 266.368 431.642 266.39 431.879C266.411 432.115 266.363 432.353 266.253 432.564C266.143 432.776 265.974 432.951 265.767 433.071C265.56 433.191 265.322 433.251 265.082 433.242Z" fill="#6C63FF"/>
<path opacity="0.2" d="M150.614 351.779L123.554 433.297L108.195 422.123L117.413 373.382L133.307 350.685L133.352 350.738L150.614 351.779Z" fill="black"/>
<path d="M126.46 383.007C123.389 390.315 122.302 396.419 118.66 395.317C113.674 393.808 118.909 388.47 121.98 381.162C125.05 373.854 127.22 368.249 129.779 368.853C134.551 369.979 129.53 375.699 126.46 383.007Z" fill="#3F3D56"/>
<path d="M133.416 368.379C133.416 367.896 133.319 367.417 133.131 366.97C132.943 366.524 132.669 366.118 132.323 365.777C131.977 365.435 131.566 365.165 131.114 364.98C130.663 364.796 130.179 364.702 129.69 364.702C129.607 364.702 129.524 364.706 129.441 364.712L125.931 364.283C125.528 364.141 125.103 364.069 124.676 364.07C124.558 364.07 124.441 364.076 124.326 364.087L124.19 364.071L124.187 364.103C123.363 364.213 122.6 364.592 122.019 365.181C121.439 365.77 121.074 366.535 120.984 367.353C120.893 368.171 121.082 368.995 121.52 369.695C121.958 370.394 122.62 370.928 123.401 371.211L123.393 371.278L123.739 371.316C124.049 371.396 124.367 371.436 124.688 371.436C124.723 371.436 124.758 371.434 124.793 371.433L128.382 371.831C128.804 371.989 129.251 372.069 129.702 372.068C129.871 372.068 130.039 372.056 130.205 372.033L130.511 372.067L130.513 371.978C131.338 371.794 132.075 371.338 132.603 370.683C133.131 370.029 133.418 369.217 133.416 368.379Z" fill="#6C63FF"/>
<path opacity="0.2" d="M133.416 368.379C133.416 367.896 133.319 367.417 133.131 366.97C132.943 366.524 132.669 366.118 132.323 365.777C131.977 365.435 131.566 365.165 131.114 364.98C130.663 364.796 130.179 364.702 129.69 364.702C129.607 364.702 129.524 364.706 129.441 364.712L125.931 364.283C125.528 364.141 125.103 364.069 124.676 364.07C124.558 364.07 124.441 364.076 124.326 364.087L124.19 364.071L124.187 364.103C123.363 364.213 122.6 364.592 122.019 365.181C121.439 365.77 121.074 366.535 120.984 367.353C120.893 368.171 121.082 368.995 121.52 369.695C121.958 370.394 122.62 370.928 123.401 371.211L123.393 371.278L123.739 371.316C124.049 371.396 124.367 371.436 124.688 371.436C124.723 371.436 124.758 371.434 124.793 371.433L128.382 371.831C128.804 371.989 129.251 372.069 129.702 372.068C129.871 372.068 130.039 372.056 130.205 372.033L130.511 372.067L130.513 371.978C131.338 371.794 132.075 371.338 132.603 370.683C133.131 370.029 133.418 369.217 133.416 368.379Z" fill="white"/>
<path d="M83.7363 418.69L83.3066 418.467C94.312 397.699 125.439 353.328 125.752 352.882L126.151 353.156C125.838 353.602 94.7277 397.949 83.7363 418.69Z" fill="#3F3D56"/>
<path d="M117.447 449.812L116.979 449.686C117.206 448.861 139.748 366.997 147.575 353.187L147.998 353.422C140.2 367.181 117.674 448.988 117.447 449.812Z" fill="#3F3D56"/>
<path d="M268.042 433.941C256.024 414.341 210.64 353.638 210.183 353.027L210.573 352.742C211.03 353.353 256.427 414.073 268.457 433.692L268.042 433.941Z" fill="#3F3D56"/>
<path d="M116.574 451.991C117.512 451.99 118.27 451.021 118.268 449.827C118.266 448.633 117.505 447.667 116.567 447.668C115.629 447.67 114.87 448.639 114.872 449.832C114.874 451.026 115.636 451.993 116.574 451.991Z" fill="#3F3D56"/>
<path d="M83.8466 419.619C84.7845 419.617 85.5433 418.648 85.5413 417.454C85.5394 416.26 84.7775 415.294 83.8396 415.295C82.9017 415.297 82.1429 416.266 82.1449 417.46C82.1468 418.653 82.9087 419.62 83.8466 419.619Z" fill="#3F3D56"/>
<path d="M268.492 435.02C269.43 435.018 270.189 434.049 270.187 432.855C270.185 431.662 269.423 430.695 268.485 430.696C267.547 430.698 266.788 431.667 266.79 432.861C266.792 434.055 267.554 435.021 268.492 435.02Z" fill="#3F3D56"/>
<path d="M123.866 355.266L215.397 356.237C215.333 348.836 212.318 341.76 207.008 336.55C201.698 331.34 194.524 328.419 187.048 328.422L152.117 328.478C137.506 328.501 125.134 339.814 123.952 354.231L123.866 355.266Z" fill="#3F3D56"/>
<path opacity="0.2" d="M204.288 385.221H170.835C170.428 385.221 170.025 385.3 169.649 385.456C169.273 385.611 168.932 385.839 168.646 386.125C168.359 386.412 168.133 386.752 167.981 387.126C167.829 387.5 167.753 387.901 167.758 388.304L167.787 390.726L168.084 416.656L168.089 417.156L168.099 417.982L168.109 418.788L168.164 423.649C168.173 424.44 168.493 425.197 169.055 425.759C169.617 426.322 170.378 426.645 171.176 426.663C171.259 426.663 171.343 426.66 171.428 426.656L179.372 426.177L190.864 425.483L194.921 425.239L195.825 425.184L202.146 424.803H202.149L204.474 424.662C205.257 424.614 205.991 424.273 206.528 423.707C207.065 423.142 207.365 422.396 207.366 421.62V388.268C207.365 387.46 207.04 386.686 206.463 386.114C205.886 385.543 205.104 385.222 204.288 385.221Z" fill="black"/>
<path d="M211.177 380.986C211.056 380.996 210.939 381.031 210.834 381.091C210.728 381.151 210.638 381.233 210.568 381.332L206.882 381.337V380.37C206.881 379.562 206.557 378.787 205.98 378.216C205.403 377.645 204.621 377.324 203.805 377.323H170.352C169.945 377.323 169.541 377.402 169.165 377.557C168.79 377.713 168.449 377.94 168.162 378.227C167.876 378.514 167.65 378.854 167.498 379.228C167.345 379.602 167.269 380.002 167.275 380.406L167.287 381.401L164.909 381.404C164.779 381.267 164.6 381.185 164.41 381.175C163.577 381.177 162.904 382.978 162.908 385.199C162.912 387.42 163.59 389.219 164.423 389.218C164.568 389.202 164.708 389.152 164.829 389.072C164.951 388.992 165.051 388.884 165.121 388.757L210.58 388.685C210.65 388.783 210.741 388.865 210.846 388.924C210.952 388.984 211.069 389.019 211.19 389.028C212.023 389.027 212.696 387.226 212.692 385.005C212.689 382.784 212.01 380.985 211.177 380.986Z" fill="#6C63FF"/>
<path opacity="0.2" d="M211.177 380.986C211.056 380.996 210.939 381.031 210.833 381.091C210.728 381.151 210.637 381.233 210.568 381.332L206.882 381.337V380.37C206.881 379.562 206.557 378.787 205.98 378.216C205.403 377.645 204.621 377.324 203.805 377.323H170.352C169.944 377.323 169.541 377.402 169.165 377.557C168.789 377.713 168.448 377.94 168.162 378.227C167.876 378.514 167.65 378.854 167.497 379.228C167.345 379.602 167.269 380.002 167.274 380.406L167.286 381.401L164.909 381.404C164.779 381.267 164.6 381.185 164.41 381.175C163.577 381.177 162.904 382.978 162.908 385.199C162.911 387.42 163.59 389.219 164.423 389.218C164.568 389.202 164.707 389.152 164.829 389.072C164.95 388.992 165.051 388.884 165.121 388.757L210.58 388.685C210.65 388.783 210.741 388.865 210.846 388.924C210.952 388.984 211.069 389.019 211.19 389.028C212.023 389.027 212.696 387.226 212.692 385.005C212.689 382.784 212.01 380.985 211.177 380.986Z" fill="white"/>
<path d="M215.289 452.002C215.245 451.602 215.053 451.233 214.749 450.967C214.446 450.7 214.053 450.556 213.647 450.561C213.277 450.559 212.918 450.679 212.626 450.903C212.333 451.128 212.126 451.443 212.036 451.798L210.426 459.541C210.372 459.768 210.345 459.999 210.343 460.232C210.343 461.978 211.819 463.191 213.647 463.191C215.474 463.191 216.951 461.978 216.951 460.232C216.95 459.952 216.912 459.673 216.837 459.404L215.289 452.002Z" fill="#3F3D56"/>
<path d="M227.472 455.465C227.308 455.323 227.132 455.196 226.945 455.084L220.792 450.827C220.193 450.454 219.553 450.465 219.088 450.914C218.886 451.105 218.757 451.361 218.725 451.636C218.692 451.911 218.758 452.189 218.911 452.421L223.558 458.467C223.664 458.614 223.782 458.751 223.912 458.878C224.717 459.769 226.503 459.818 227.484 458.878C228.452 457.922 228.441 456.219 227.472 455.465Z" fill="#3F3D56"/>
<path d="M232.096 449.159H225.864C225.664 449.151 225.469 449.222 225.322 449.356C225.175 449.49 225.087 449.676 225.078 449.873C225.075 450.056 225.133 450.234 225.244 450.379C225.355 450.525 225.512 450.629 225.69 450.676L231.569 452.477C232.423 452.674 233.574 451.92 233.574 450.979C233.574 449.782 232.901 449.159 232.096 449.159Z" fill="#3F3D56"/>
<path d="M202.442 449.87C202.436 449.768 202.409 449.669 202.363 449.578C202.317 449.487 202.253 449.405 202.176 449.339C202.098 449.272 202.007 449.222 201.909 449.19C201.811 449.158 201.708 449.147 201.606 449.155H195.374C194.589 449.155 193.927 449.994 193.927 450.935C193.927 451.876 195.044 452.674 195.9 452.477L201.868 450.676C202.047 450.635 202.204 450.53 202.31 450.381C202.416 450.233 202.463 450.051 202.442 449.87Z" fill="#3F3D56"/>
<path d="M206.719 450.834L200.564 455.073C200.373 455.179 200.195 455.307 200.033 455.454C199.58 455.87 199.314 456.448 199.291 457.06C199.269 457.671 199.493 458.266 199.914 458.714C199.952 458.755 199.992 458.794 200.033 458.832C200.516 459.284 201.155 459.535 201.819 459.535C202.483 459.535 203.122 459.284 203.605 458.832C203.736 458.708 203.855 458.57 203.959 458.422L208.608 452.411C208.764 452.182 208.832 451.905 208.799 451.631C208.767 451.357 208.636 451.103 208.431 450.916C208.202 450.704 207.904 450.58 207.59 450.565C207.277 450.549 206.968 450.645 206.719 450.834Z" fill="#3F3D56"/>
<path d="M216.293 442.55C216.365 442.446 216.404 442.324 216.407 442.198C216.407 441.456 214.93 440.94 213.103 440.94C211.275 440.94 209.799 441.456 209.799 442.198C209.802 442.301 209.83 442.402 209.882 442.491L211.492 445.782C211.677 446.093 212.342 446.31 213.103 446.308C213.96 446.308 214.673 446.039 214.745 445.695L216.293 442.55Z" fill="#3F3D56"/>
<path d="M226.94 442.773C225.959 442.374 224.173 442.394 223.368 442.773C223.246 442.823 223.128 442.882 223.014 442.948L218.368 445.517C218.052 445.72 218.126 445.99 218.545 446.157C219.094 446.346 219.69 446.359 220.248 446.195L226.401 444.385C226.58 444.341 226.755 444.287 226.928 444.223C227.897 443.903 227.908 443.179 226.94 442.773Z" fill="#3F3D56"/>
<path d="M233.03 446.13C233.03 445.73 231.88 445.41 231.025 445.494L225.147 446.259C224.795 446.308 224.534 446.421 224.534 446.6C224.534 446.779 224.917 446.904 225.32 446.904H231.552C232.357 446.904 233.03 446.639 233.03 446.13Z" fill="#3F3D56"/>
<path d="M201.324 446.259L195.356 445.494C194.5 445.41 193.383 445.749 193.383 446.149C193.383 446.548 194.045 446.905 194.83 446.905H201.062C201.495 446.905 201.898 446.787 201.898 446.601C201.898 446.415 201.712 446.308 201.324 446.259Z" fill="#3F3D56"/>
<path d="M207.888 446.157C208.323 445.987 208.374 445.729 208.065 445.521L203.415 442.967C203.302 442.899 203.184 442.841 203.061 442.792C201.904 442.394 200.646 442.394 199.489 442.792C199.448 442.809 199.408 442.825 199.37 442.843C198.494 443.239 198.547 443.86 199.489 444.228C199.662 444.294 199.84 444.348 200.02 444.39L206.175 446.192C206.736 446.357 207.335 446.344 207.888 446.157Z" fill="#3F3D56"/>
<path d="M225.778 442.017C225.778 451.534 220.421 451.71 213.812 451.71C207.203 451.71 196.353 449.827 201.846 442.017C207.639 433.78 217.578 418.078 213.812 417.246C213.812 417.246 225.778 432.5 225.778 442.017Z" fill="#F9A825"/>
<path opacity="0.5" d="M218.026 447.873C218.026 451.64 215.905 451.71 213.29 451.71C210.674 451.71 206.379 450.965 208.553 447.873C210.846 444.612 214.78 438.397 213.29 438.068C213.29 438.068 218.026 444.106 218.026 447.873Z" fill="#FF6584"/>
<path d="M207.366 419.918V421.62C207.365 422.396 207.065 423.142 206.528 423.707C205.991 424.272 205.257 424.614 204.474 424.662L171.428 426.656C171.011 426.681 170.594 426.622 170.202 426.483C169.809 426.344 169.45 426.127 169.144 425.846C168.839 425.564 168.595 425.225 168.426 424.847C168.258 424.47 168.169 424.062 168.164 423.649L168.084 416.656L188.074 416.335L207.366 419.918Z" fill="#3F3D56"/>
<path d="M180.609 422.158C180.609 422.769 180.493 423.374 180.266 423.941L179.371 426.177L171.428 426.656C171.343 426.66 171.258 426.663 171.176 426.663C170.377 426.646 169.617 426.322 169.055 425.759C168.493 425.197 168.173 424.44 168.164 423.649L168.109 418.788L168.099 417.982L170.99 419.195L173.809 417.697C173.963 417.632 174.12 417.576 174.28 417.53C174.489 417.464 174.702 417.414 174.919 417.379H174.921C175.025 417.362 175.129 417.348 175.233 417.338C176.428 417.22 177.625 417.541 178.595 418.24C179.163 418.647 179.634 419.172 179.976 419.777C180.002 419.818 180.025 419.862 180.046 419.906C180.238 420.263 180.383 420.642 180.476 421.036C180.564 421.404 180.609 421.78 180.609 422.158Z" fill="#2F2E41"/>
<path d="M116.508 395.624C112.266 392.384 112.681 385.295 117.167 382.509C117.258 382.452 117.348 382.393 117.436 382.333C117.66 381.113 117.885 379.893 118.11 378.673C119.433 380.23 122.036 379.936 123.062 378.114C119.484 369.468 114.78 361.48 109.107 354.419C107.87 352.872 107.176 350.866 107.156 348.779C107.136 346.692 107.792 344.669 108.999 343.092C109.02 343.064 109.042 343.035 109.063 343.006C112.267 341.78 115.3 340.044 118.073 337.851C108.565 320.543 90.4348 306.793 86.1254 287C73.161 302.774 71.7057 308.33 58.7412 324.104C58.7412 324.104 46.4654 336.654 43.8158 343.399C44.4668 344.174 50.2954 346.033 50.5195 347.557C54.9645 347.961 62.6653 342.44 62.6653 342.44C62.6653 342.44 45.857 362.743 40.7539 375.249C40.2943 376.375 39.8579 377.661 40.2428 378.823C40.5502 379.75 41.6528 380.285 42.363 379.916C41.5146 380.843 40.8335 381.948 40.3575 383.17C41.8383 384.241 43.5948 384.715 45.343 384.516C47.0912 384.317 48.7289 383.455 49.9915 382.07C49.2807 383.575 48.5699 385.08 47.8591 386.584L47.8603 386.588C48.8206 386.943 49.6824 387.577 50.3605 388.425C51.0387 389.273 51.5097 390.308 51.7271 391.425C51.9445 392.543 51.9007 393.706 51.6001 394.799C51.2995 395.891 50.7525 396.877 50.013 397.656C45.6022 402.304 41.5718 407.19 40.095 410.407C38.7056 413.434 52.9708 417.083 56.1793 416.933C59.3879 416.783 62.387 415.186 65.285 413.618C65.1437 415.115 65.3965 416.626 66.0114 417.961C67.5984 418.398 69.2464 418.47 70.8586 418.175C72.4708 417.88 74.0146 417.222 75.3994 416.242C75.2715 419.236 78.605 420.889 80.9188 420.041C79.7636 440.745 80.6086 469.819 81.7184 500H84.4717V421.235C85.2043 421.655 85.988 421.951 86.7971 422.111C92.4302 423.244 99.228 423.932 102.893 418.955C107.112 423.775 114.843 423.684 119.038 418.881C118.625 419.709 119.257 421.104 120.191 421.324C121.293 421.582 122.364 420.841 123.3 420.133C127.533 416.926 131.767 413.719 136 410.512C130.776 406.522 123.355 400.854 116.508 395.624Z" fill="url(#paint4_linear_1111_60)"/>
<path d="M274.508 369.624C270.266 366.384 270.681 359.295 275.167 356.509C275.258 356.452 275.348 356.393 275.436 356.333C275.66 355.113 275.885 353.893 276.11 352.673C277.433 354.23 280.036 353.936 281.062 352.114C277.484 343.468 272.78 335.48 267.107 328.419C265.87 326.872 265.176 324.866 265.156 322.779C265.136 320.692 265.792 318.669 266.999 317.092C267.02 317.064 267.042 317.035 267.063 317.006C270.267 315.78 273.3 314.044 276.073 311.851C266.565 294.543 248.435 280.793 244.125 261C231.161 276.774 229.706 282.33 216.741 298.104C216.741 298.104 204.465 310.654 201.816 317.399C202.467 318.174 208.295 320.033 208.519 321.557C212.964 321.961 220.665 316.44 220.665 316.44C220.665 316.44 203.857 336.743 198.754 349.249C198.294 350.375 197.858 351.661 198.243 352.823C198.55 353.75 199.653 354.285 200.363 353.916C199.515 354.843 198.834 355.948 198.357 357.17C199.838 358.241 201.595 358.715 203.343 358.516C205.091 358.317 206.729 357.455 207.991 356.07C207.281 357.575 206.57 359.08 205.859 360.584L205.86 360.588C206.821 360.943 207.682 361.577 208.361 362.425C209.039 363.273 209.51 364.308 209.727 365.425C209.945 366.543 209.901 367.706 209.6 368.799C209.3 369.891 208.752 370.877 208.013 371.656C203.602 376.304 199.572 381.19 198.095 384.407C196.706 387.434 210.971 391.083 214.179 390.933C217.388 390.783 220.387 389.186 223.285 387.618C223.144 389.115 223.396 390.626 224.011 391.961C225.598 392.398 227.246 392.47 228.859 392.175C230.471 391.88 232.015 391.222 233.399 390.242C233.272 393.236 236.605 394.889 238.919 394.041C237.764 414.745 238.609 443.819 239.718 474H242.472V395.235C243.204 395.655 243.988 395.951 244.797 396.111C250.43 397.244 257.228 397.932 260.893 392.955C265.112 397.775 272.843 397.684 277.038 392.881C276.625 393.709 277.257 395.104 278.191 395.324C279.293 395.582 280.364 394.841 281.3 394.133C285.533 390.926 289.767 387.719 294 384.512C288.776 380.522 281.355 374.854 274.508 369.624Z" fill="url(#paint5_linear_1111_60)"/>
</g>
<defs>
<linearGradient id="paint0_linear_1111_60" x1="111.85" y1="-73" x2="111.85" y2="419.068" gradientUnits="userSpaceOnUse">
<stop stop-color="#F2F2F2"/>
<stop offset="0.129808" stop-color="#3BA0FF" stop-opacity="0.870192"/>
<stop offset="1" stop-color="#8C8C8C" stop-opacity="0"/>
</linearGradient>
<linearGradient id="paint1_linear_1111_60" x1="43.5057" y1="170" x2="43.5057" y2="415.21" gradientUnits="userSpaceOnUse">
<stop stop-color="#9B94FF"/>
<stop offset="0.759615" stop-color="#126724"/>
</linearGradient>
<linearGradient id="paint2_linear_1111_60" x1="317.265" y1="228.87" x2="317.265" y2="474.08" gradientUnits="userSpaceOnUse">
<stop stop-color="#9B94FF"/>
<stop offset="0.759615" stop-color="#126724"/>
</linearGradient>
<linearGradient id="paint3_linear_1111_60" x1="144" y1="218" x2="144" y2="431" gradientUnits="userSpaceOnUse">
<stop stop-color="#9B94FF"/>
<stop offset="0.759615" stop-color="#126724"/>
</linearGradient>
<linearGradient id="paint4_linear_1111_60" x1="88" y1="287" x2="88" y2="500" gradientUnits="userSpaceOnUse">
<stop stop-color="#9B94FF"/>
<stop offset="0.759615" stop-color="#126724"/>
</linearGradient>
<linearGradient id="paint5_linear_1111_60" x1="246" y1="261" x2="246" y2="474" gradientUnits="userSpaceOnUse">
<stop stop-color="#9B94FF"/>
<stop offset="0.759615" stop-color="#126724"/>
</linearGradient>
<clipPath id="clip0_1111_60">
<rect width="377" height="759" fill="white"/>
</clipPath>
</defs>
</svg>
